HIERARCHY
ROOT Hips
{
	OFFSET 0.000000 0.000000 0.000000 
	CHANNELS 6 Xposition Yposition Zposition Yrotation Zrotation Xrotation 
	JOINT Lumbar
	{
		OFFSET 0.000000 0.000000 0.000000 
		CHANNELS 3 Zrotation Xrotation Yrotation
		JOINT Neck
		{
			OFFSET 0.000000 0.445665 0.000000 
			CHANNELS 3 Zrotation Xrotation Yrotation
			End Site
			{
				OFFSET 0.000000 0.227535 0.000000 
			}
		}
		JOINT RightShoulder
		{
			OFFSET 0.019635 0.377685 0.194865 
			CHANNELS 3 Zrotation Xrotation Yrotation
			JOINT RightElbow
			{
				OFFSET 0.000000 -0.243375 0.000000 
				CHANNELS 2 Zrotation Yrotation
				JOINT RightWrist
				{
					OFFSET 0.000000 -0.264825 0.000000 
					CHANNELS 2 Zrotation Xrotation
					End Site
					{
						OFFSET 0.006600 -0.176220 0.000990 
					}
				}
			}
		}
		JOINT LeftShoulder
		{
			OFFSET 0.019635 0.377685 -0.194865 
			CHANNELS 3 Zrotation Xrotation Yrotation
			JOINT LeftElbow
			{
				OFFSET 0.000000 -0.243375 0.000000 
				CHANNELS 2 Zrotation Yrotation
				JOINT LeftWrist
				{
					OFFSET 0.000000 -0.264825 0.000000 
					CHANNELS 2 Zrotation Xrotation
					End Site
					{
						OFFSET 0.006600 -0.176220 -0.000990 
					}
				}
			}
		}
	}
	JOINT RightHip
	{
		OFFSET 0.052140 -0.069960 0.075570 
		CHANNELS 3 Zrotation Xrotation Yrotation
		JOINT RightKnee
		{
			OFFSET 0.000000 -0.402270 0.000000 
			CHANNELS 1 Zrotation
			JOINT RightAnkle
			{
				OFFSET 0.000000 -0.404085 0.000000 
				CHANNELS 3 Zrotation Xrotation Yrotation
				End Site
				{
					OFFSET 0.204105 -0.089430 0.008415 
				}
			}
		}
	}
	JOINT LeftHip
	{
		OFFSET 0.052140 -0.069960 -0.075570 
		CHANNELS 3 Zrotation Xrotation Yrotation
		JOINT LeftKnee
		{
			OFFSET 0.000000 -0.402270 0.000000 
			CHANNELS 1 Zrotation
			JOINT LeftAnkle
			{
				OFFSET 0.000000 -0.404085 0.000000 
				CHANNELS 3 Zrotation Xrotation Yrotation
				End Site
				{
					OFFSET 0.204105 -0.089430 -0.008415 
				}
			}
		}
	}
}
MOTION
Frames: 25
Frame Time: 0.02
2.56475 -0.02104 -0.67304 746.89477 -14.57731 8.65765 19.23961 -2.20241 -4.06102 -3.47498 10.43517 -0.83079 29.82253 -20.64968 -5.13867 73.33483 73.98131 -7.02803 1.45513 4.76196 11.6058 -5.24342 98.45841 -81.54382 -1.91142 1.88965 -1.13203 -6.79973 -16.91015 -88.19452 -6.83619 -3.59197 -2.50549 83.50565 11.57501 2.68623 -136.07091 -6.05164 1.35059 1.31041
2.5661 -0.0205 -0.67192 747.0449 -14.58657 8.72893 19.32651 -2.24813 -4.48503 -3.30059 9.99289 -0.83079 29.32792 -20.96781 -4.52575 74.3475 74.7177 -6.946 1.00446 5.09811 11.58983 -5.58469 98.42205 -81.54582 -1.92721 1.97542 -1.20729 -6.57918 -16.92679 -87.91654 -6.87997 -3.60985 -2.51939 83.43756 11.71591 2.93152 -136.07434 -6.01253 1.39268 1.32744
2.5677 -0.01985 -0.67087 747.15432 -14.55944 8.81759 19.42886 -2.31457 -4.89825 -3.08836 9.47195 -0.83079 29.23227 -21.48117 -3.64956 75.68039 75.62912 -6.9059 0.40848 5.38711 11.562 -5.90175 98.4273 -81.53267 -1.97461 1.94717 -1.33288 -6.35046 -16.88888 -87.64757 -6.92888 -3.64025 -2.54201 83.2912 11.90102 3.20342 -136.08404 -5.96775 1.44128 1.34451
2.56919 -0.01925 -0.66981 747.28016 -14.55153 8.90179 19.52987 -2.36957 -5.31359 -2.88906 8.98147 -0.83079 29.00969 -21.91612 -2.87003 76.89847 76.44405 -6.84622 -0.1024 5.69624 11.53913 -6.22711 98.41357 -81.528 -2.00321 1.97501 -1.43452 -6.13509 -16.87774 -87.37437 -6.97449 -3.66386 -2.5599 83.17891 12.0644 3.46713 -136.08946 -5.92667 1.48543 1.36102
2.5707 -0.01866 -0.66865 747.41482 -14.53273 8.97181 19.60855 -2.43422 -5.74279 -2.7071 8.51049 -0.83079 28.55777 -22.31359 -2.18091 77.99831 77.34558 -6.78522 -0.68951 6.01115 11.51876 -6.56339 98.39974 -81.51818 -2.04766 1.99532 -1.54067 -5.87758 -16.85798 -87.09857 -7.02458 -3.69225 -2.58108 83.07254 12.23434 3.71623 -136.10098 -5.88059 1.53615 1.38004
2.57222 -0.01802 -0.66772 747.52123 -14.52691 9.07491 19.7367 -2.48344 -6.13946 -2.48115 7.9825 -0.83079 28.68458 -22.83073 -1.24115 79.41068 78.10032 -6.73956 -1.15396 6.30304 11.49003 -6.87186 98.39542 -81.51485 -2.06781 1.998 -1.65063 -5.70583 -16.84313 -86.83078 -7.06648 -3.71363 -2.59747 82.93421 12.40124 3.99924 -136.10105 -5.84379 1.57455 1.39371
2.57369 -0.01728 -0.66741 747.56196 -14.57683 9.27082 19.99883 -2.48321 -6.45214 -2.13237 7.30181 -0.83079 30.23264 -23.65996 0.29658 81.6723 78.43607 -6.70997 -1.24519 6.53866 11.44232 -7.10364 98.41635 -81.5336 -2.01146 2.00909 -1.74311 -5.78001 -16.85701 -86.59216 -7.0837 -3.71251 -2.59836 82.74135 12.54923 4.39542 -136.0704 -5.83269 1.57835 1.39319
2.57516 -0.0165 -0.66733 747.57527 -14.6391 9.49834 20.30983 -2.46704 -6.73136 -1.7427 6.56961 -0.83079 32.36237 -24.59648 2.081 84.2228 78.6123 -6.69739 -1.20894 6.75339 11.38643 -7.30963 98.44391 -81.55912 -1.92997 2.00123 -1.84025 -5.9392 -16.87697 -86.36011 -7.09265 -3.70397 -2.5942 82.51657 12.69262 4.82 -136.02752 -5.83138 1.56931 1.38717
2.57664 -0.01575 -0.66715 747.59961 -14.68859 9.70774 20.5974 -2.45894 -7.02383 -1.37844 5.87046 -0.83079 34.27751 -25.46469 3.77152 86.6002 78.83873 -6.68818 -1.23025 6.98043 11.33329 -7.53083 98.46254 -81.58098 -1.86185 1.97996 -1.9455 -6.05579 -16.89366 -86.11961 -7.10582 -3.69874 -2.59238 82.29706 12.83804 5.21457 -135.98873 -5.82644 1.56544 1.38325
2.57808 -0.01498 -0.66697 747.62852 -14.76707 9.93379 20.89046 -2.44745 -7.32516 -0.98338 5.12692 -0.83079 35.99946 -26.42414 5.39733 89.17274 79.1595 -6.63467 -1.25579 7.19416 11.28334 -7.7352 98.50743 -81.60469 -1.78779 2.04193 -2.00993 -6.19106 -16.9126 -85.90258 -7.11705 -3.6939 -2.59049 82.11369 12.98539 5.68228 -135.95656 -5.81784 1.56457 1.38098
2.57961 -0.01423 -0.66685 747.642 -14.78858 10.13222 21.1838 -2.43977 -7.59903 -0.64406 4.46578 -0.83079 38.25315 -27.21417 7.20953 91.39408 79.25124 -6.67551 -1.24332 7.431 11.22556 -7.9704 98.49886 -81.62649 -1.7182 1.93487 -2.15911 -6.3049 -16.92647 -85.6379 -7.13053 -3.68674 -2.58767 81.8486 13.12686 6.00402 -135.90734 -5.81927 1.55435 1.374
2.58136 -0.01357 -0.66687 747.61911 -14.64968 10.24825 21.46296 -2.43941 -7.81509 -0.46214 4.03564 -0.83079 41.85931 -27.52871 9.50295 92.65008 78.6809 -6.98465 -1.13044 7.73881 11.14292 -8.28359 98.33916 -81.64006 -1.68061 1.30106 -2.5475 -6.36366 -16.94772 -85.24231 -7.14988 -3.67117 -2.58143 81.36513 13.25477 5.91558 -135.81654 -5.84607 1.52115 1.35502
2.5832 -0.01294 -0.66694 747.58194 -14.45316 10.33491 21.74115 -2.44464 -8.00271 -0.33921 3.69238 -0.83079 45.97172 -27.66468 11.96782 93.52629 77.89654 -7.38554 -0.98751 8.07009 11.0536 -8.63124 98.12565 -81.65177 -1.64602 0.50948 -3.01984 -6.3937 -16.96029 -84.79825 -7.17211 -3.65412 -2.57475 80.8011 13.37642 5.67903 -135.70859 -5.88265 1.479 1.33154
2.58501 -0.01229 -0.66698 747.55181 -14.28337 10.43397 22.02176 -2.45182 -8.19715 -0.1936 3.31565 -0.83079 49.83531 -27.8691 14.33673 94.52632 77.25548 -7.73659 -0.87566 8.39003 10.97097 -8.97219 97.93765 -81.66524 -1.60069 -0.16575 -3.44904 -6.42012 -16.96132 -84.37465 -7.19466 -3.64021 -2.56963 80.27463 13.49965 5.5104 -135.60668 -5.91477 1.44109 1.31034
2.5868 -0.01168 -0.66705 747.5183 -14.11201 10.5385 22.29595 -2.43946 -8.41683 -0.02874 2.91136 -0.83079 53.80619 -28.13064 16.79563 95.74542 76.41849 -8.12331 -0.68778 8.71366 10.87313 -9.27478 97.74503 -81.6751 -1.59288 -1.02639 -3.89851 -6.51828 -17.02532 -83.95724 -7.21041 -3.61579 -2.55867 79.74269 13.62799 5.3407 -135.51136 -5.94734 1.402 1.28797
2.58864 -0.01099 -0.66706 747.48887 -13.92969 10.62379 22.58239 -2.46938 -8.57682 0.08103 2.58618 -0.83079 57.65669 -28.22983 19.09825 96.41065 75.93594 -8.45643 -0.65042 9.03346 10.80488 -9.66528 97.5497 -81.69192 -1.50947 -1.54285 -4.32684 -6.46111 -16.95927 -83.51616 -7.24068 -3.61283 -2.55972 79.2038 13.74436 5.13704 -135.3989 -5.98111 1.36345 1.26704
2.5906 -0.01006 -0.66687 747.47396 -13.73444 10.66702 22.90475 -2.61433 -8.58598 0.05649 2.45537 -0.83079 61.12598 -27.92002 20.97845 95.66782 76.52728 -8.62676 -1.05612 9.35354 10.8254 -10.29428 97.35554 -81.72857 -1.20348 -1.02849 -4.66549 -5.96393 -16.5078 -83.01436 -7.31393 -3.67112 -2.59506 78.66277 13.82824 4.8811 -135.23914 -6.0162 1.32825 1.25113
2.59261 -0.00906 -0.6666 747.46386 -13.52955 10.69105 23.23886 -2.80176 -8.53488 -0.02234 2.4019 -0.83079 64.43766 -27.45364 22.68376 94.37417 77.47557 -8.73879 -1.61093 9.66561 10.87503 -11.00963 97.16137 -81.77221 -0.82377 -0.16981 -4.98178 -5.31415 -15.9307 -82.49157 -7.40092 -3.75093 -2.64237 78.11826 13.90045 4.59508 -135.06355 -6.05201 1.29404 1.23686
2.5946 -0.00811 -0.66635 747.45186 -13.32684 10.72112 23.56617 -2.97009 -8.507 -0.07872 2.31525 -0.83079 67.77183 -27.06073 24.43549 93.31217 78.23312 -8.87194 -2.08532 9.97106 10.90775 -11.68321 96.97002 -81.81252 -0.48664 0.50367 -5.31557 -4.746 -15.43017 -81.98332 -7.47949 -3.81967 -2.68349 77.57714 13.97869 4.31908 -134.89801 -6.08718 1.25965 1.22189
2.59657 -0.0071 -0.66616 747.43808 -13.13118 10.76139 23.89976 -3.13784 -8.49587 -0.12762 2.22364 -0.83079 71.33972 -26.65023 26.33657 92.31473 79.10328 -9.02957 -2.61318 10.32213 10.95553 -12.36983 96.76464 -81.85348 -0.1117 1.29208 -5.622 -4.12604 -14.84851 -81.45296 -7.56794 -3.89322 -2.7276 77.02525 14.05379 4.05286 -134.71985 -6.12406 1.22376 1.20654
2.5986 -0.00619 -0.66583 747.42944 -12.91961 10.77639 24.2229 -3.31669 -8.43571 -0.20435 2.15917 -0.83079 74.36638 -26.24355 27.87822 91.05846 79.82674 -9.12297 -3.06403 10.57411 10.97927 -13.04788 96.58955 -81.8947 0.20258 1.92595 -5.97814 -3.57689 -14.40435 -80.96346 -7.63828 -3.96265 -2.76854 76.49642 14.13254 3.76162 -134.56439 -6.15736 1.19141 1.19247
2.60078 -0.00552 -0.66516 747.4329 -12.66398 10.72513 24.51572 -3.51676 -8.25652 -0.3434 2.15389 -0.83079 76.01943 -25.86893 28.50696 89.21054 80.05642 -9.03582 -3.27722 10.56999 10.92679 -13.69299 96.49514 -81.93559 0.32649 2.04071 -6.4843 -3.27236 -14.38701 -80.59951 -7.65676 -4.01243 -2.79693 76.02913 14.22595 3.40484 -134.47596 -6.18103 1.1681 1.18125
2.60302 -0.00494 -0.66435 747.44159 -12.39352 10.6496 24.79739 -3.72627 -8.02984 -0.50854 2.17211 -0.83079 77.11385 -25.50768 28.7718 87.12564 80.12736 -8.88788 -3.40498 10.46327 10.84976 -14.32382 96.43199 -81.97646 0.38778 1.99028 -7.03951 -3.04318 -14.5102 -80.27641 -7.65287 -4.06042 -2.82251 75.58621 14.32307 3.0257 -134.41095 -6.20093 1.14846 1.17134
2.60522 -0.00433 -0.6636 747.4486 -12.13166 10.58591 25.08319 -3.93092 -7.82407 -0.66224 2.17723 -0.83079 78.40917 -25.15213 29.17881 85.15821 80.27307 -8.77996 -3.56547 10.39335 10.78566 -14.9536 96.35681 -82.01682 0.48087 2.02168 -7.56705 -2.77085 -14.55724 -79.92968 -7.66248 -4.108 -2.84916 75.13439 14.41749 2.65963 -134.33495 -6.22221 1.12752 1.16102
2.60746 -0.0037 -0.66285 747.45293 -11.86121 10.51752 25.37323 -4.13975 -7.61933 -0.81603 2.19583 -0.83079 79.9287 -24.74094 29.6797 83.12826 80.42045 -8.62167 -3.76014 10.36521 10.71468 -15.61944 96.27262 -82.05932 0.56223 2.03677 -8.11649 -2.52722 -14.64828 -79.60291 -7.67229 -4.15114 -2.87454 74.67287 14.51611 2.2788 -134.2597 -6.24494 1.10508 1.14996
